<svg width="188" height="59" viewBox="0 0 188 59" fill="none" xmlns="http://www.w3.org/2000/svg">
<g filter="url(#filter0_d)">
<path d="M35.922 44V17.426H25.172V13.685H51.101V17.426H40.351V44H35.922ZM66.0815 44.387C63.1861 44.387 60.6778 43.7563 58.5565 42.495C56.4351 41.205 54.7868 39.399 53.6115 37.077C52.4648 34.7263 51.8915 31.9743 51.8915 28.821C51.8915 25.639 52.4648 22.887 53.6115 20.565C54.7868 18.243 56.4351 16.4513 58.5565 15.19C60.6778 13.9287 63.1861 13.298 66.0815 13.298C68.9481 13.298 71.4421 13.9287 73.5635 15.19C75.7135 16.4513 77.3618 18.243 78.5085 20.565C79.6838 22.887 80.2715 25.6247 80.2715 28.778C80.2715 31.96 79.6838 34.7263 78.5085 37.077C77.3618 39.399 75.7135 41.205 73.5635 42.495C71.4421 43.7563 68.9481 44.387 66.0815 44.387ZM66.0815 40.517C69.0915 40.517 71.4278 39.4993 73.0905 37.464C74.7818 35.4 75.6275 32.519 75.6275 28.821C75.6275 25.123 74.7961 22.2563 73.1335 20.221C71.4708 18.1857 69.1201 17.168 66.0815 17.168C63.0715 17.168 60.7208 18.1857 59.0295 20.221C57.3668 22.2563 56.5355 25.123 56.5355 28.821C56.5355 32.519 57.3668 35.4 59.0295 37.464C60.7208 39.4993 63.0715 40.517 66.0815 40.517ZM86.2653 44V13.685H96.9723C101.96 13.685 105.802 14.9893 108.496 17.598C111.22 20.2067 112.581 23.9477 112.581 28.821C112.581 33.6943 111.22 37.4497 108.496 40.087C105.802 42.6957 101.96 44 96.9723 44H86.2653ZM90.7373 40.259H96.7143C104.196 40.259 107.937 36.4463 107.937 28.821C107.937 21.2243 104.196 17.426 96.7143 17.426H90.7373V40.259ZM131.715 44.387C128.82 44.387 126.312 43.7563 124.19 42.495C122.069 41.205 120.421 39.399 119.245 37.077C118.099 34.7263 117.525 31.9743 117.525 28.821C117.525 25.639 118.099 22.887 119.245 20.565C120.421 18.243 122.069 16.4513 124.19 15.19C126.312 13.9287 128.82 13.298 131.715 13.298C134.582 13.298 137.076 13.9287 139.197 15.19C141.347 16.4513 142.996 18.243 144.142 20.565C145.318 22.887 145.905 25.6247 145.905 28.778C145.905 31.96 145.318 34.7263 144.142 37.077C142.996 39.399 141.347 41.205 139.197 42.495C137.076 43.7563 134.582 44.387 131.715 44.387ZM131.715 40.517C134.725 40.517 137.062 39.4993 138.724 37.464C140.416 35.4 141.261 32.519 141.261 28.821C141.261 25.123 140.43 22.2563 138.767 20.221C137.105 18.1857 134.754 17.168 131.715 17.168C128.705 17.168 126.355 18.1857 124.663 20.221C123.001 22.2563 122.169 25.123 122.169 28.821C122.169 32.519 123.001 35.4 124.663 37.464C126.355 39.4993 128.705 40.517 131.715 40.517ZM152.851 24.091L150.959 22.629C151.618 21.9123 152.106 21.253 152.421 20.651C152.736 20.049 152.951 19.4327 153.066 18.802H150.658V13.685H155.818V17.168C155.818 18.458 155.603 19.662 155.173 20.78C154.743 21.898 153.969 23.0017 152.851 24.091ZM172.166 44.387C169.787 44.387 167.608 44.086 165.63 43.484C163.652 42.8533 161.975 41.979 160.599 40.861L162.018 37.335C163.451 38.4243 164.985 39.2413 166.619 39.786C168.253 40.3307 170.102 40.603 172.166 40.603C174.603 40.603 176.394 40.173 177.541 39.313C178.716 38.4243 179.304 37.2777 179.304 35.873C179.304 34.7263 178.888 33.8233 178.057 33.164C177.226 32.476 175.835 31.9313 173.886 31.53L169.285 30.584C166.562 30.0107 164.526 29.0647 163.179 27.746C161.86 26.4273 161.201 24.65 161.201 22.414C161.201 20.608 161.674 19.017 162.62 17.641C163.595 16.265 164.942 15.2043 166.662 14.459C168.382 13.685 170.36 13.298 172.596 13.298C174.66 13.298 176.566 13.6133 178.315 14.244C180.092 14.846 181.597 15.7347 182.83 16.91L181.368 20.307C178.931 18.157 175.993 17.082 172.553 17.082C170.432 17.082 168.74 17.555 167.479 18.501C166.246 19.447 165.63 20.7083 165.63 22.285C165.63 23.489 166.017 24.4493 166.791 25.166C167.565 25.8827 168.855 26.4273 170.661 26.8L175.219 27.746C178.086 28.348 180.221 29.2797 181.626 30.541C183.031 31.7737 183.733 33.4507 183.733 35.572C183.733 37.3493 183.26 38.8973 182.314 40.216C181.368 41.5347 180.035 42.5667 178.315 43.312C176.595 44.0287 174.545 44.387 172.166 44.387Z" fill="black"/>
</g>
<line y1="-1.25" x2="10.0718" y2="-1.25" transform="matrix(0.722085 0.691805 -0.722085 0.691805 0 13.3548)" stroke="black" stroke-width="2.5"/>
<line y1="-1.25" x2="17.0348" y2="-1.25" transform="matrix(0.747133 -0.664674 0.695967 0.718073 7.27274 20.3226)" stroke="black" stroke-width="2.5"/>
<line y1="-1.25" x2="10.0718" y2="-1.25" transform="matrix(0.722085 0.691805 -0.722085 0.691805 0 41.0323)" stroke="black" stroke-width="2.5"/>
<line y1="-1.25" x2="17.0348" y2="-1.25" transform="matrix(0.747133 -0.664674 0.695967 0.718073 7.27274 48)" stroke="black" stroke-width="2.5"/>
<line y1="-1.25" x2="10.0718" y2="-1.25" transform="matrix(0.722085 0.691805 -0.722085 0.691805 0 27.1936)" stroke="black" stroke-width="2.5"/>
<line y1="-1.25" x2="17.0348" y2="-1.25" transform="matrix(0.747133 -0.664674 0.695967 0.718073 7.27274 34.1613)" stroke="black" stroke-width="2.5"/>
<defs>
<filter id="filter0_d" x="21.172" y="13.298" width="166.561" height="39.089" filterUnits="userSpaceOnUse" color-interpolation-filters="sRGB">
<feFlood flood-opacity="0" result="BackgroundImageFix"/>
<feColorMatrix in="SourceAlpha" type="matrix" values="0 0 0 0 0 0 0 0 0 0 0 0 0 0 0 0 0 0 127 0" result="hardAlpha"/>
<feOffset dy="4"/>
<feGaussianBlur stdDeviation="2"/>
<feComposite in2="hardAlpha" operator="out"/>
<feColorMatrix type="matrix" values="0 0 0 0 0 0 0 0 0 0 0 0 0 0 0 0 0 0 0.25 0"/>
<feBlend mode="normal" in2="BackgroundImageFix" result="effect1_dropShadow"/>
<feBlend mode="normal" in="SourceGraphic" in2="effect1_dropShadow" result="shape"/>
</filter>
</defs>
</svg>
